<svg width="20" height="20" viewBox="0 0 20 20" fill="none" xmlns="http://www.w3.org/2000/svg">
<path opacity="0.6" d="M4.00977 0C2.07977 0 0.509766 1.57 0.509766 3.5C0.509766 5.08 1.56977 6.403 3.00977 6.837V13.997C3.00877 14.176 3.03677 15.778 4.18377 16.928C4.89177 17.64 5.83977 18 6.99977 18V20L10.9998 17L6.99977 14V16C5.17677 16 5.01577 14.466 5.00977 14V6.837C6.44977 6.403 7.50977 5.08 7.50977 3.5C7.50977 1.57 5.93877 0 4.00977 0ZM4.00977 5C3.18277 5 2.50977 4.327 2.50977 3.5C2.50977 2.673 3.18277 2 4.00977 2C4.83677 2 5.50977 2.673 5.50977 3.5C5.50977 4.327 4.83677 5 4.00977 5ZM17.0098 13.163V5.997C17.0048 4.391 15.9328 2 12.9998 2V0L8.99977 3L12.9998 6V4C14.8288 4 15.0008 5.539 15.0098 6V13.163C13.5698 13.597 12.5098 14.92 12.5098 16.5C12.5098 18.43 14.0798 20 16.0098 20C17.9398 20 19.5098 18.43 19.5098 16.5C19.5098 14.92 18.4498 13.597 17.0098 13.163ZM16.0098 18C15.1828 18 14.5098 17.327 14.5098 16.5C14.5098 15.673 15.1828 15 16.0098 15C16.8368 15 17.5098 15.673 17.5098 16.5C17.5098 17.327 16.8368 18 16.0098 18Z" fill="black"/>
</svg>
