<svg width="32" height="31" viewBox="0 0 32 31" fill="none" xmlns="http://www.w3.org/2000/svg">
<path d="M15.9353 0.17334C7.53384 0.17334 0.72168 6.9855 0.72168 15.3869C0.72168 23.7884 7.53384 30.6005 15.9353 30.6005C24.3367 30.6005 31.1489 23.7884 31.1489 15.3869C31.1489 6.9855 24.3367 0.17334 15.9353 0.17334ZM17.1748 19.1496C15.684 21.2482 12.6888 21.8595 10.3524 20.9596C8.00926 20.0665 6.34528 17.5909 6.54563 15.0677C6.59657 11.9809 9.43893 9.27433 12.5258 9.3796C14.0064 9.31168 15.3987 9.95351 16.5329 10.8602C16.0473 11.4103 15.5481 11.9401 15.0116 12.4325C13.6498 11.4918 11.7108 11.2236 10.349 12.3103C8.39979 13.6584 8.3115 16.8404 10.186 18.2904C12.0096 19.9442 15.4565 19.1224 15.9624 16.5891C14.8214 16.5721 13.6736 16.5891 12.5326 16.5517C12.5292 15.8691 12.5258 15.19 12.5292 14.5074C14.4377 14.5006 16.3496 14.4972 18.2615 14.5142C18.3735 16.1204 18.1596 17.8252 17.1748 19.1496ZM25.4098 16.2189C24.8393 16.2257 24.2688 16.2291 23.6983 16.2325C23.6915 16.803 23.6881 17.3735 23.6881 17.944H21.98C21.9732 17.3735 21.9732 16.8064 21.9698 16.2359C21.3993 16.2291 20.8288 16.2257 20.2582 16.2189V14.5176C20.8288 14.5108 21.3993 14.5074 21.9698 14.5074C21.9732 13.9369 21.98 13.3664 21.9834 12.7959H23.6881L23.6983 14.5074C24.2688 14.5142 24.8393 14.5142 25.4098 14.5176V16.2189Z" fill="white"/>
</svg>
