<svg width="19" height="20" viewBox="0 0 19 20" fill="none" xmlns="http://www.w3.org/2000/svg">
<path d="M4.04231 12.7499C4.84408 12.7475 5.61551 12.4431 6.20289 11.8974L11.9412 15.1763C11.749 15.9276 11.8337 16.723 12.18 17.417C12.5262 18.1109 13.1109 18.6569 13.8268 18.955C14.5427 19.2531 15.342 19.2834 16.0785 19.0404C16.8149 18.7973 17.4392 18.2971 17.837 17.6314C18.2348 16.9657 18.3795 16.179 18.2447 15.4153C18.1098 14.6516 17.7045 13.962 17.1027 13.4727C16.501 12.9835 15.7432 12.7273 14.9681 12.7511C14.1929 12.7749 13.4523 13.0771 12.8817 13.6024L7.14339 10.3235C7.20389 10.0943 7.23689 9.85691 7.24239 9.61949L12.8799 6.39741C13.4227 6.89128 14.1189 7.18345 14.8516 7.2249C15.5843 7.26634 16.309 7.05454 16.904 6.62503C17.4991 6.19552 17.9283 5.57442 18.1198 4.86595C18.3112 4.15748 18.2531 3.40472 17.9553 2.73398C17.6575 2.06323 17.1381 1.51531 16.4842 1.18212C15.8304 0.848932 15.0818 0.750756 14.3641 0.904063C13.6464 1.05737 13.0033 1.45283 12.5426 2.0241C12.0819 2.59537 11.8317 3.3077 11.834 4.04157C11.8376 4.30557 11.8734 4.56866 11.9412 4.82349L6.73089 7.79991C6.42874 7.33246 6.01018 6.95167 5.51633 6.69493C5.02248 6.4382 4.47033 6.31436 3.91414 6.33558C3.35795 6.3568 2.81684 6.52235 2.34399 6.81597C1.87114 7.10959 1.48281 7.52117 1.21715 8.01028C0.95149 8.49938 0.817646 9.04919 0.828765 9.60567C0.839885 10.1622 0.995586 10.7062 1.28057 11.1843C1.56556 11.6624 1.97002 12.0581 2.45422 12.3326C2.93843 12.6071 3.48571 12.7509 4.04231 12.7499Z" fill="black"/>
</svg>
