<svg width="18" height="16" viewBox="0 0 18 16" fill="none" xmlns="http://www.w3.org/2000/svg">
<path d="M8.17053 0.992291C8.48844 0.111719 9.73379 0.111718 10.0517 0.992291L11.3673 4.63636C11.5104 5.03268 11.8865 5.29679 12.3079 5.29679H16.3219C17.3159 5.29679 17.7011 6.58975 16.8691 7.13375L13.8093 9.13454C13.4214 9.38819 13.2586 9.87514 13.416 10.3111L14.6263 13.6635C14.9523 14.5666 13.942 15.3655 13.1384 14.84L9.65838 12.5645C9.32592 12.3471 8.8963 12.3471 8.56384 12.5645L5.0838 14.84C4.28021 15.3655 3.26991 14.5666 3.59594 13.6635L4.80625 10.3111C4.96363 9.87514 4.80084 9.38819 4.41294 9.13454L1.35309 7.13375C0.521149 6.58975 0.906353 5.29679 1.90037 5.29679H5.91436C6.33571 5.29679 6.71186 5.03268 6.85494 4.63636L8.17053 0.992291Z" fill="#555555"/>
</svg>
