<svg width="32" height="31" viewBox="0 0 32 31" fill="none" xmlns="http://www.w3.org/2000/svg">
<path d="M16.1609 0.17334C7.75942 0.17334 0.947266 6.9855 0.947266 15.3869C0.947266 23.7884 7.75942 30.6005 16.1609 30.6005C24.5623 30.6005 31.3745 23.7884 31.3745 15.3869C31.3745 6.9855 24.5623 0.17334 16.1609 0.17334ZM23.4722 11.6413C23.4824 11.8009 23.4824 11.9673 23.4824 12.1303C23.4824 17.1154 19.6858 22.8579 12.748 22.8579C10.6086 22.8579 8.62538 22.2364 6.9546 21.1667C7.26023 21.2007 7.55227 21.2143 7.8647 21.2143C9.63056 21.2143 11.2538 20.6166 12.5476 19.6046C10.8904 19.5707 9.49812 18.484 9.02269 16.9898C9.60339 17.0747 10.1264 17.0747 10.724 16.9219C9.87074 16.7485 9.10377 16.2851 8.55344 15.6103C8.0031 14.9356 7.70335 14.0911 7.70509 13.2204V13.1728C8.20429 13.4547 8.79177 13.6279 9.40643 13.6516C8.88972 13.3073 8.46597 12.8407 8.17274 12.2934C7.87952 11.746 7.72588 11.1348 7.72546 10.5138C7.72546 9.81088 7.90884 9.16906 8.23824 8.61213C9.18537 9.77806 10.3672 10.7316 11.707 11.4109C13.0468 12.0902 14.5146 12.4799 16.0148 12.5548C15.4817 9.99086 17.397 7.91597 19.6994 7.91597C20.7861 7.91597 21.7641 8.37102 22.4534 9.10453C23.3058 8.94493 24.1208 8.62571 24.8475 8.19783C24.5657 9.07057 23.9748 9.80748 23.1904 10.2727C23.951 10.1912 24.6845 9.98067 25.3637 9.68523C24.8509 10.4391 24.2091 11.1081 23.4722 11.6413Z" fill="white"/>
</svg>
