<svg width="21" height="19" viewBox="0 0 21 19" fill="none" xmlns="http://www.w3.org/2000/svg">
<path opacity="0.6" d="M10.5006 18.0258L10.1526 17.7358C2.67062 11.6458 0.640625 9.4998 0.640625 6.0198C0.640625 3.1198 2.96062 0.799805 5.86062 0.799805C8.23862 0.799805 9.57263 2.1338 10.5006 3.1778C11.4286 2.1338 12.7626 0.799805 15.1406 0.799805C18.0406 0.799805 20.3606 3.1198 20.3606 6.0198C20.3606 9.4998 18.3306 11.6458 10.8486 17.7358L10.5006 18.0258ZM5.86062 1.9598C3.59862 1.9598 1.80062 3.7578 1.80062 6.0198C1.80062 8.9778 3.65662 10.9498 10.5006 16.5178C17.3446 10.9498 19.2006 8.9778 19.2006 6.0198C19.2006 3.7578 17.4026 1.9598 15.1406 1.9598C13.1106 1.9598 12.0086 3.1778 11.1386 4.1638L10.5006 4.9178L9.86262 4.1638C8.99262 3.1778 7.89062 1.9598 5.86062 1.9598Z" fill="black"/>
</svg>
